<svg id="Layer_1" enable-background="new 0 0 510.889 510.889" height="512" viewBox="0 0 510.889 510.889" width="512" xmlns="http://www.w3.org/2000/svg"><g><g><path d="m303.899 56.729c-11.923-13.828-24.253-28.128-37.003-43.196l-11.451-13.533-10.667 297.556 10.667 213.333c105.657 0 191.615-85.958 191.615-191.615 0-96.515-60.05-166.157-143.161-262.545z" fill="#7fc0fd"/><path d="m243.994 13.532c-12.75 15.068-25.08 29.367-37.003 43.195-83.112 96.389-143.162 166.032-143.162 262.546 0 105.657 85.958 191.615 191.615 191.615v-510.888z" fill="#9ccefd"/></g><g fill="#fffbf5"><path d="m175.755 410.748 16.995-25.055c-17.82-16.732-28.971-40.49-28.971-66.806 0-24.141 9.306-46.929 26.203-64.166l-21.424-21.001c-22.427 22.879-34.779 53.125-34.779 85.167 0 36.635 16.276 69.538 41.976 91.861z"/><path d="m217.667 402.401-17.02 25.092c16.478 8.348 35.097 13.06 54.798 13.06v-30c-13.461 0-26.253-2.917-37.778-8.152z"/></g></g></svg>