<?xml version="1.0" standalone="no"?>
<!DOCTYPE svg PUBLIC "-//W3C//DTD SVG 20010904//EN"
 "http://www.w3.org/TR/2001/REC-SVG-20010904/DTD/svg10.dtd">
<svg version="1.0" xmlns="http://www.w3.org/2000/svg"
 width="383.000000pt" height="383.000000pt" viewBox="0 0 383.000000 383.000000"
 preserveAspectRatio="xMidYMid meet">
<metadata>
Created by potrace 1.11, written by Peter Selinger 2001-2013
</metadata>
<g transform="translate(0.000000,383.000000) scale(0.100000,-0.100000)"
fill="#000000" stroke="none">
<path d="M1846 3809 c-60 -47 -353 -437 -556 -739 -170 -254 -314 -501 -430
-735 -112 -227 -152 -326 -138 -343 8 -9 6 -11 -8 -6 -10 4 -16 4 -12 -1 4 -4
1 -20 -8 -36 -11 -21 -11 -29 -2 -29 6 0 3 -6 -8 -14 -19 -15 -19 -15 1 -30
19 -15 19 -15 -5 -9 -23 6 -24 5 -10 -12 8 -10 10 -16 4 -12 -7 4 -15 0 -18
-9 -4 -10 -2 -13 7 -9 6 4 3 -1 -7 -9 -19 -15 -11 -22 19 -16 5 1 6 -2 2 -7
-5 -4 -15 -8 -24 -8 -8 0 -21 -15 -29 -33 -7 -18 -9 -30 -4 -27 6 3 10 2 10
-3 0 -16 -13 -22 -26 -11 -9 7 -12 6 -10 -5 1 -9 6 -19 11 -23 4 -4 5 -2 0 6
-5 10 -4 12 4 7 15 -10 3 -29 -15 -22 -7 3 -16 0 -20 -6 -4 -7 -3 -8 4 -4 7 4
12 2 12 -4 0 -6 5 -8 12 -4 7 4 8 3 4 -4 -4 -7 -3 -12 3 -12 5 0 -1 -12 -15
-27 -19 -20 -21 -28 -12 -35 10 -6 10 -8 1 -8 -7 0 -13 -5 -13 -11 0 -5 4 -8
9 -4 5 3 13 1 16 -5 4 -6 1 -9 -7 -8 -10 2 -13 -39 -14 -209 -2 -206 0 -218
27 -215 3 1 6 -6 6 -13 0 -11 -4 -12 -13 -4 -8 7 -14 6 -20 -2 -4 -8 -3 -9 4
-5 7 4 12 1 12 -9 0 -9 -5 -13 -11 -10 -6 4 -5 -2 3 -14 8 -14 20 -19 33 -16
11 3 14 2 7 -1 -10 -5 -10 -9 -1 -20 6 -8 8 -14 5 -14 -4 0 -2 -10 5 -21 6
-12 7 -19 1 -15 -5 3 -12 -1 -16 -9 -3 -8 0 -17 6 -21 6 -4 8 -3 5 2 -3 5 3
10 14 10 16 0 18 -2 7 -11 -16 -11 -19 -54 -4 -52 6 1 10 -3 11 -10 0 -6 3
-15 7 -19 4 -4 2 -14 -5 -22 -6 -9 -7 -13 -1 -10 6 4 22 -20 38 -58 16 -37 32
-61 39 -57 6 3 7 1 3 -5 -7 -13 37 -90 103 -177 173 -230 418 -399 691 -478
154 -45 278 -60 429 -54 201 9 355 46 527 126 136 64 241 137 353 245 208 200
332 424 392 708 29 132 31 357 5 496 -28 156 -130 479 -177 566 -6 10 -6 16
-1 12 5 -3 9 2 9 10 0 9 -6 13 -15 9 -12 -4 -13 -3 -2 10 11 13 10 14 -4 9 -9
-3 -16 -2 -16 4 0 6 6 13 13 15 8 4 7 6 -3 6 -9 1 -39 48 -74 119 -153 309
-375 669 -625 1012 -153 211 -337 446 -363 464 -33 23 -100 20 -132 -5z
m-1136 -1963 c0 -2 -8 -10 -17 -17 -16 -13 -17 -12 -4 4 13 16 21 21 21 13z
m-56 -82 c3 -8 2 -12 -4 -9 -6 3 -10 10 -10 16 0 14 7 11 14 -7z m-44 -694 c0
-5 -5 -10 -11 -10 -5 0 -7 5 -4 10 3 6 8 10 11 10 2 0 4 -4 4 -10z m37 -5 c0
-8 -4 -12 -9 -9 -5 3 -6 10 -3 15 9 13 12 11 12 -6z m23 -155 c0 -5 -2 -10 -4
-10 -3 0 -8 5 -11 10 -3 6 -1 10 4 10 6 0 11 -4 11 -10z"/>
<path d="M573 1619 c-1 -12 -1 -20 0 -18 2 2 9 12 16 22 11 14 11 17 -1 17 -7
0 -14 -10 -15 -21z"/>
<path d="M599 1026 c-1 -3 -2 -9 -3 -13 -1 -5 -5 -13 -9 -20 -4 -7 -1 -10 10
-9 18 3 27 32 12 42 -5 3 -10 3 -10 0z"/>
</g>
</svg>
