<svg width="150" height="200" viewBox="0 0 150 200" fill="none"
  xmlns="http://www.w3.org/2000/svg">
  <path d="M135.095 80.4274L75 0V200C116.358 200 149.885 166.473 149.885 125.115C149.885 108.365 144.386 92.9016 135.095 80.4274Z" fill="#209CE9" />
  <path d="M14.9047 80.4274C5.61393 92.9016 0.114609 108.365 0.114609 125.115C0.114609 166.473 33.6418 200 75 200V0L14.9047 80.4274Z" fill="#209CE9" />
  <path d="M118.025 180H108.997L74.7366 126.633L39.9532 180H31L69.984 119.54L34.4729 64H43.6765L74.8831 112.851L106.75 64H115.385L79.4922 119.382L118.025 180Z" fill="white" />
  <path d="M39.5623 116.005H109.756V122.602H39.5623V116.005ZM39.5623 135.798H109.759V142.395H39.5594L39.5623 135.798Z" fill="white" />
</svg>