<?xml version="1.0" encoding="utf-8"?>
<svg viewBox="0 0 500 500" xmlns="http://www.w3.org/2000/svg">
  <path fill="#209CE9" opacity="1.000000" stroke="none" d="M 251.955 5.405 C 255.62 5.405 259.283 5.405 263.527 5.719 C 267.098 8.601 270.712 10.745 272.95 13.826 C 278.63 21.641 283.324 30.135 289.076 37.897 C 302.692 56.272 316.586 74.458 330.571 92.572 C 341.267 106.422 352.412 119.947 363.114 133.793 C 376.433 151.025 390.107 168.044 402.521 185.877 C 416.204 205.536 427.917 226.364 436.554 248.689 C 442.547 264.187 446.697 280.138 448.247 296.573 C 449.102 305.66 448.815 314.908 448.286 324.04 C 447.767 332.992 446.952 342.023 445.097 350.786 C 441.111 369.61 434.024 387.44 424.14 404.122 C 412.023 424.577 396.64 442.375 377.518 457.111 C 354.041 475.202 327.749 487.474 298.425 493.648 C 292.518 494.892 286.627 496.202 280.728 497.482 C 265.494 497.482 250.259 497.482 234.399 497.14 C 228.231 495.745 222.66 494.832 217.16 493.613 C 177.582 484.84 143.982 466.282 116.488 437.068 C 98.344 417.791 84.951 395.904 76.569 371.372 C 69.302 350.105 65.745 328.186 67.161 305.459 C 68.12 290.072 70.594 275.158 75.234 260.533 C 84.172 232.362 98.157 206.541 115.956 182.795 C 137.869 153.554 160.676 124.944 182.807 95.854 C 199.822 73.488 216.352 50.777 233.17 28.271 C 239.068 20.375 242.267 10.382 251.955 5.405 Z" style=""/>
  <path d="M 364.918 438.952 L 342.523 438.952 L 257.536 313.577 L 171.251 438.952 L 149.042 438.952 L 245.746 296.914 L 157.657 166.435 L 180.488 166.435 L 257.899 281.201 L 336.949 166.435 L 358.369 166.435 L 269.333 296.542 L 364.918 438.952 Z" fill="white" style=""/>
  <path d="M 170.282 288.61 L 344.405 288.61 L 344.405 304.109 L 170.282 304.109 L 170.282 288.61 Z M 170.282 335.108 L 344.412 335.108 L 344.412 350.608 L 170.275 350.608 L 170.282 335.108 Z" fill="white" style=""/>
</svg>